# xmcd
#
# Track frame offsets: 
#        150
#        18805
#        31657
#        46970
#        65860
#        87357
#        102275
#        120190
#        131877
#        149435
#        173875
#        185860
#        205960
#        224525
#        236102
#        251515
#        272295
#        290525
#        308117
#        322895
#
# Disc length: 4558 seconds
#
# Revision: 2
# Processed by: cddbd v1.4PL0 Copyright (c) Steve Scherf et al.
# Submitted via: ExactAudioCopy v0.95a3
#
DISCID=2811cc14
DTITLE=Mose Allison - Creek Bank
DYEAR=1900
DGENRE=
TTITLE0=Somebody Else Is Taking My Place
TTITLE1=Don't Get Around Much Anymore
TTITLE2=Bye Bye Blues
TTITLE3=How Long Has This Been Going On
TTITLE4=I Told Ya I Love Ya, Now Get Out!
TTITLE5=Baby Let Me Hold Your Hand
TTITLE6=Stroll
TTITLE7=I Hadn't Anyone Till You
TTITLE8=My Kind Of Love
TTITLE9=Sleepy Time Gal
TTITLE10=The Seventh Son
TTITLE11=If I Didn't Care
TTITLE12=Cabin In The Sky
TTITLE13=If You Live
TTITLE14=Yardbird Suite
TTITLE15=Creek Bank
TTITLE16=Moon And Cypress
TTITLE17=Mule
TTITLE18=Dinner On The Ground
TTITLE19=Prelude To A Kiss
EXTD=
EXTT0=
EXTT1=
EXTT2=
EXTT3=
EXTT4=
EXTT5=
EXTT6=
EXTT7=
EXTT8=
EXTT9=
EXTT10=
EXTT11=
EXTT12=
EXTT13=
EXTT14=
EXTT15=
EXTT16=
EXTT17=
EXTT18=
EXTT19=
PLAYORDER=
